<svg width="32" height="32" viewBox="0 0 32 32" fill="none" xmlns="http://www.w3.org/2000/svg">
<rect width="32" height="32" rx="9" fill="#10233F"/>
<path d="M22.8 10.8C21.2 9.6 18.9 9 16.4 9C12.9 9 10.6 10.5 10.6 12.9C10.6 15.1 12.3 16.2 15.8 16.9C18.4 17.4 19.4 17.9 19.4 19C19.4 20.2 18.2 20.9 16.2 20.9C14 20.9 12 20.2 10.3 18.8L8.8 21C10.8 22.7 13.4 23.6 16.2 23.6C20 23.6 22.5 21.8 22.5 18.8C22.5 16.3 20.8 15.2 17 14.4C14.6 13.9 13.7 13.5 13.7 12.6C13.7 11.8 14.6 11.3 16.3 11.3C18.1 11.3 19.8 11.8 21.3 12.9L22.8 10.8Z" fill="#C5A56A"/>
</svg>
